<svg width="59" height="34" viewBox="0 0 59 34" fill="none" xmlns="http://www.w3.org/2000/svg">
<rect width="59" height="34" rx="17" fill="#4F79BC"/>
<path d="M28.4492 21.0888L23.1976 15.7734C22.558 15.126 22.4152 14.3852 22.7694 13.5511C23.1235 12.717 23.7544 12.2992 24.662 12.2979H35.0643C35.9732 12.2979 36.6048 12.7156 36.9589 13.5511C37.3131 14.3866 37.1697 15.1273 36.5287 15.7734L31.2771 21.0888C31.0751 21.2933 30.8562 21.4466 30.6206 21.5488C30.3849 21.651 30.1325 21.7021 29.8631 21.7021C29.5938 21.7021 29.3414 21.651 29.1057 21.5488C28.87 21.4466 28.6512 21.2933 28.4492 21.0888Z" fill="white"/>
</svg>
