<svg width="24" height="24" viewBox="0 0 24 24" fill="none" xmlns="http://www.w3.org/2000/svg">
<path fill-rule="evenodd" clip-rule="evenodd" d="M2.25 6C2.25 5.80109 2.32902 5.61032 2.46967 5.46967C2.61032 5.32902 2.80109 5.25 3 5.25H21C21.1989 5.25 21.3897 5.32902 21.5303 5.46967C21.671 5.61032 21.75 5.80109 21.75 6C21.75 6.19891 21.671 6.38968 21.5303 6.53033C21.3897 6.67098 21.1989 6.75 21 6.75H3C2.80109 6.75 2.61032 6.67098 2.46967 6.53033C2.32902 6.38968 2.25 6.19891 2.25 6ZM2.25 10C2.25 9.80109 2.32902 9.61032 2.46967 9.46967C2.61032 9.32902 2.80109 9.25 3 9.25H21C21.1989 9.25 21.3897 9.32902 21.5303 9.46967C21.671 9.61032 21.75 9.80109 21.75 10C21.75 10.1989 21.671 10.3897 21.5303 10.5303C21.3897 10.671 21.1989 10.75 21 10.75H3C2.80109 10.75 2.61032 10.671 2.46967 10.5303C2.32902 10.3897 2.25 10.1989 2.25 10ZM20.461 12.909C20.6176 13.0313 20.7193 13.2108 20.7437 13.4081C20.7681 13.6054 20.7131 13.8042 20.591 13.961L16.691 18.961C16.6223 19.049 16.5347 19.1205 16.4348 19.1704C16.3349 19.2202 16.2251 19.2471 16.1135 19.2491C16.0019 19.2512 15.8912 19.2282 15.7895 19.182C15.6879 19.1358 15.5979 19.0675 15.526 18.982L13.426 16.482C13.3586 16.4072 13.3069 16.3196 13.274 16.2244C13.2412 16.1292 13.2278 16.0283 13.2348 15.9278C13.2418 15.8274 13.2689 15.7293 13.3146 15.6396C13.3603 15.5498 13.4236 15.4701 13.5007 15.4054C13.5778 15.3406 13.6672 15.292 13.7635 15.2626C13.8598 15.2331 13.9611 15.2233 14.0613 15.2338C14.1614 15.2443 14.2584 15.2749 14.3465 15.3237C14.4346 15.3726 14.512 15.4386 14.574 15.518L16.078 17.308L19.408 13.038C19.4686 12.9603 19.5439 12.8953 19.6296 12.8467C19.7153 12.7981 19.8098 12.7669 19.9076 12.7548C20.0054 12.7427 20.1046 12.7501 20.1995 12.7763C20.2945 12.8026 20.3833 12.8474 20.461 12.908V12.909ZM2.25 14C2.25 13.8011 2.32902 13.6103 2.46967 13.4697C2.61032 13.329 2.80109 13.25 3 13.25H10C10.1989 13.25 10.3897 13.329 10.5303 13.4697C10.671 13.6103 10.75 13.8011 10.75 14C10.75 14.1989 10.671 14.3897 10.5303 14.5303C10.3897 14.671 10.1989 14.75 10 14.75H3C2.80109 14.75 2.61032 14.671 2.46967 14.5303C2.32902 14.3897 2.25 14.1989 2.25 14ZM2.25 18C2.25 17.8011 2.32902 17.6103 2.46967 17.4697C2.61032 17.329 2.80109 17.25 3 17.25H10C10.1989 17.25 10.3897 17.329 10.5303 17.4697C10.671 17.6103 10.75 17.8011 10.75 18C10.75 18.1989 10.671 18.3897 10.5303 18.5303C10.3897 18.671 10.1989 18.75 10 18.75H3C2.80109 18.75 2.61032 18.671 2.46967 18.5303C2.32902 18.3897 2.25 18.1989 2.25 18Z" fill="#2B2753"/>
</svg>
