<svg width="305" height="126" viewBox="0 0 305 126" fill="none" xmlns="http://www.w3.org/2000/svg">
<path d="M109.897 92.928C109.177 92.928 108.625 92.72 108.241 92.304C107.857 91.888 107.665 91.312 107.665 90.576V81.072C107.665 79.856 107.825 78.912 108.145 78.24C108.481 77.568 109.065 76.992 109.897 76.512H105.241V74.952H112.321V76.488C111.345 76.92 110.633 77.48 110.185 78.168C109.737 78.84 109.513 79.768 109.513 80.952V90.168C109.513 90.632 109.609 90.952 109.801 91.128C109.993 91.288 110.313 91.368 110.761 91.368H111.649V92.928H109.897ZM121.089 93.36C119.137 93.36 117.537 92.608 116.289 91.104V93H114.489V80.16H116.337V89.424C117.393 91.056 118.833 91.872 120.657 91.872C121.825 91.872 122.705 91.608 123.297 91.08C123.889 90.536 124.185 89.744 124.185 88.704V80.16H126.033V88.776C126.033 90.168 125.601 91.28 124.737 92.112C123.873 92.944 122.657 93.36 121.089 93.36ZM124.211 74.232H126.011V78.096H124.211V74.232ZM135.995 93.36C134.043 93.36 132.443 92.608 131.195 91.104V93H129.395V80.16H131.243V89.424C132.299 91.056 133.739 91.872 135.563 91.872C136.731 91.872 137.611 91.608 138.203 91.08C138.795 90.536 139.091 89.744 139.091 88.704V80.16H140.939V88.776C140.939 90.168 140.507 91.28 139.643 92.112C138.779 92.944 137.563 93.36 135.995 93.36ZM130.933 76.728H139.237V74.184H140.941V78.096H130.933V76.728ZM149.269 93.36C147.621 93.36 146.317 92.928 145.357 92.064C144.413 91.184 143.941 90.016 143.941 88.56V87.528C143.941 87.016 144.053 86.536 144.277 86.088C144.517 85.64 144.853 85.112 145.285 84.504C145.605 84.072 145.845 83.72 146.005 83.448C146.165 83.16 146.245 82.88 146.245 82.608C146.245 82.24 146.165 81.992 146.005 81.864C145.845 81.72 145.557 81.648 145.141 81.648H143.821V80.16H145.909C146.581 80.16 147.109 80.36 147.493 80.76C147.893 81.16 148.093 81.696 148.093 82.368C148.093 82.8 147.997 83.208 147.805 83.592C147.613 83.96 147.317 84.424 146.917 84.984C146.533 85.496 146.245 85.936 146.053 86.304C145.877 86.656 145.789 87.032 145.789 87.432V88.632C145.789 89.672 146.085 90.472 146.677 91.032C147.269 91.592 148.133 91.872 149.269 91.872C150.421 91.872 151.285 91.592 151.861 91.032C152.437 90.472 152.725 89.664 152.725 88.608V80.16H154.573V88.272C154.573 89.872 154.109 91.12 153.181 92.016C152.253 92.912 150.949 93.36 149.269 93.36ZM149.758 76.608C149.758 76.4 149.726 76.256 149.662 76.176C149.582 76.096 149.438 76.056 149.23 76.056H148.174V74.712H149.734C150.214 74.712 150.566 74.832 150.79 75.072C150.998 75.296 151.102 75.584 151.102 75.936V76.824H156.022V78.096H149.758V76.608ZM162.454 93.36C161.51 93.36 160.598 93.24 159.718 93C158.838 92.76 158.086 92.416 157.462 91.968V85.92H162.358V87.408H159.31V91.104C160.094 91.616 161.142 91.872 162.454 91.872C164.086 91.872 165.358 91.392 166.27 90.432C167.182 89.472 167.638 88.112 167.638 86.352C167.638 84.576 167.206 83.288 166.342 82.488C165.494 81.688 164.086 81.288 162.118 81.288C161.254 81.288 160.414 81.384 159.598 81.576C158.798 81.752 158.118 82.04 157.558 82.44V80.904C158.774 80.168 160.366 79.8 162.334 79.8C164.67 79.8 166.446 80.36 167.662 81.48C168.878 82.584 169.486 84.208 169.486 86.352C169.486 87.76 169.206 88.992 168.646 90.048C168.086 91.104 167.278 91.92 166.222 92.496C165.166 93.072 163.91 93.36 162.454 93.36ZM178.956 93.36C177.004 93.36 175.404 92.608 174.156 91.104V93H172.356V80.16H174.204V89.424C175.26 91.056 176.7 91.872 178.524 91.872C179.692 91.872 180.572 91.608 181.164 91.08C181.756 90.536 182.052 89.744 182.052 88.704V80.16H183.9V88.776C183.9 90.168 183.468 91.28 182.604 92.112C181.74 92.944 180.524 93.36 178.956 93.36ZM181.094 99.384C180.182 99.384 179.478 99.184 178.982 98.784C178.486 98.384 178.238 97.856 178.238 97.2V96.36C178.238 96.136 178.206 95.984 178.142 95.904C178.078 95.84 177.942 95.808 177.734 95.808H176.894V94.488H178.718C179.118 94.488 179.398 94.576 179.558 94.752C179.702 94.944 179.774 95.24 179.774 95.64V97.032C179.774 97.816 180.198 98.208 181.046 98.208C181.878 98.208 182.294 97.816 182.294 97.032V94.488H183.83V97.152C183.83 97.824 183.59 98.36 183.11 98.76C182.63 99.176 181.958 99.384 181.094 99.384ZM191.342 93.36C189.934 93.36 188.822 93.016 188.006 92.328C187.19 91.624 186.782 90.616 186.782 89.304C186.782 88.024 187.238 87.016 188.15 86.28C189.062 85.528 190.286 85.152 191.822 85.152C193.486 85.152 194.998 85.472 196.358 86.112V84.72C196.358 83.536 196.038 82.672 195.398 82.128C194.758 81.568 193.718 81.288 192.278 81.288C191.526 81.288 190.79 81.36 190.07 81.504C189.35 81.632 188.726 81.816 188.198 82.056V80.568C188.678 80.344 189.326 80.16 190.142 80.016C190.958 79.872 191.75 79.8 192.518 79.8C194.438 79.8 195.862 80.24 196.79 81.12C197.734 81.984 198.206 83.176 198.206 84.696V93H196.358V87.6C195.094 86.96 193.638 86.64 191.99 86.64C190.838 86.64 189.99 86.864 189.446 87.312C188.902 87.744 188.63 88.408 188.63 89.304C188.63 90.184 188.878 90.832 189.374 91.248C189.87 91.664 190.662 91.872 191.75 91.872C192.31 91.872 192.838 91.8 193.334 91.656V93.12C192.774 93.28 192.11 93.36 191.342 93.36ZM3.79119 118C3.31119 118 2.94319 117.861 2.68719 117.584C2.43119 117.307 2.30319 116.923 2.30319 116.432V109.968C2.30319 109.168 2.15919 108.544 1.87119 108.096C1.58319 107.648 1.10852 107.291 0.447188 107.024V105.968H5.16719V107.008H2.14319C2.63385 107.307 2.98585 107.701 3.19919 108.192C3.42319 108.672 3.53519 109.28 3.53519 110.016V116.16C3.53519 116.469 3.59919 116.683 3.72719 116.8C3.85519 116.907 4.06852 116.96 4.36719 116.96H4.95919V118H3.79119ZM10.5802 118.24C9.78019 118.24 9.07619 118.096 8.46819 117.808C7.87085 117.52 7.41219 117.115 7.09219 116.592C6.77219 116.059 6.61219 115.451 6.61219 114.768V109.44H7.84419V114.784C7.84419 115.541 8.07885 116.144 8.54819 116.592C9.02819 117.029 9.70552 117.248 10.5802 117.248C11.4549 117.248 12.1269 117.029 12.5962 116.592C13.0762 116.144 13.3162 115.541 13.3162 114.784V106.576H14.5482V114.768C14.5482 115.451 14.3882 116.059 14.0682 116.592C13.7482 117.115 13.2842 117.52 12.6762 117.808C12.0789 118.096 11.3802 118.24 10.5802 118.24ZM19.6161 118.24C19.0614 118.24 18.4854 118.165 17.8881 118.016C17.3014 117.877 16.8374 117.68 16.4961 117.424V116.384C16.9441 116.672 17.4347 116.891 17.9681 117.04C18.5014 117.179 19.0241 117.248 19.5361 117.248C20.3041 117.248 20.8534 117.152 21.1841 116.96C21.5254 116.757 21.6961 116.421 21.6961 115.952C21.6961 115.643 21.6214 115.392 21.4721 115.2C21.3334 114.997 21.0987 114.821 20.7681 114.672C20.4374 114.523 19.9467 114.352 19.2961 114.16C18.3254 113.872 17.6107 113.547 17.1521 113.184C16.6934 112.811 16.4641 112.272 16.4641 111.568C16.4641 110.8 16.7521 110.213 17.3281 109.808C17.9147 109.403 18.7147 109.2 19.7281 109.2C20.2507 109.2 20.7521 109.264 21.2321 109.392C21.7121 109.509 22.1121 109.669 22.4321 109.872V110.896C21.6641 110.427 20.7947 110.192 19.8241 110.192C18.4054 110.192 17.6961 110.651 17.6961 111.568C17.6961 111.899 17.7814 112.16 17.9521 112.352C18.1227 112.544 18.3734 112.709 18.7041 112.848C19.0347 112.976 19.5414 113.136 20.2241 113.328C20.9067 113.52 21.4401 113.733 21.8241 113.968C22.2187 114.192 22.5014 114.464 22.6721 114.784C22.8427 115.093 22.9281 115.488 22.9281 115.968C22.9281 116.651 22.6561 117.2 22.1121 117.616C21.5787 118.032 20.7467 118.24 19.6161 118.24ZM28.5586 118.24C27.7586 118.24 27.0546 118.075 26.4466 117.744C25.8386 117.403 25.3639 116.907 25.0226 116.256C24.6919 115.605 24.5266 114.811 24.5266 113.872C24.5266 112.4 24.9266 111.253 25.7266 110.432C26.5372 109.611 27.6572 109.2 29.0866 109.2C30.5479 109.2 31.6039 109.547 32.2546 110.24C32.9159 110.923 33.2466 111.787 33.2466 112.832V118H32.0146V112.816C32.0146 111.067 31.0386 110.192 29.0866 110.192C28.0412 110.192 27.2252 110.507 26.6386 111.136C26.0519 111.755 25.7586 112.667 25.7586 113.872C25.7586 114.971 26.0252 115.808 26.5586 116.384C27.0919 116.96 27.8172 117.248 28.7346 117.248C29.1292 117.248 29.5079 117.2 29.8706 117.104V118.08C29.5186 118.187 29.0812 118.24 28.5586 118.24ZM35.9672 112.56L35.1672 111.296C35.7005 110.613 36.3192 110.096 37.0232 109.744C37.7272 109.381 38.5645 109.2 39.5352 109.2C40.7725 109.2 41.7165 109.483 42.3672 110.048C43.0179 110.613 43.3432 111.408 43.3432 112.432V118H42.1112V112.544C42.1112 111.744 41.8925 111.152 41.4552 110.768C41.0285 110.384 40.3885 110.192 39.5352 110.192C38.8739 110.192 38.2979 110.293 37.8072 110.496C37.3165 110.688 36.8792 111.003 36.4952 111.44L37.1992 112.544V118H35.9672V112.56ZM48.4129 118.24C47.8583 118.24 47.2823 118.165 46.6849 118.016C46.0983 117.877 45.6343 117.68 45.2929 117.424V116.384C45.7409 116.672 46.2316 116.891 46.7649 117.04C47.2983 117.179 47.8209 117.248 48.3329 117.248C49.1009 117.248 49.6503 117.152 49.9809 116.96C50.3223 116.757 50.4929 116.421 50.4929 115.952C50.4929 115.643 50.4183 115.392 50.2689 115.2C50.1303 114.997 49.8956 114.821 49.5649 114.672C49.2343 114.523 48.7436 114.352 48.0929 114.16C47.1223 113.872 46.4076 113.547 45.9489 113.184C45.4903 112.811 45.2609 112.272 45.2609 111.568C45.2609 110.8 45.5489 110.213 46.1249 109.808C46.7116 109.403 47.5116 109.2 48.5249 109.2C49.0476 109.2 49.5489 109.264 50.0289 109.392C50.5089 109.509 50.9089 109.669 51.2289 109.872V110.896C50.4609 110.427 49.5916 110.192 48.6209 110.192C47.2023 110.192 46.4929 110.651 46.4929 111.568C46.4929 111.899 46.5783 112.16 46.7489 112.352C46.9196 112.544 47.1703 112.709 47.5009 112.848C47.8316 112.976 48.3383 113.136 49.0209 113.328C49.7036 113.52 50.2369 113.733 50.6209 113.968C51.0156 114.192 51.2983 114.464 51.4689 114.784C51.6396 115.093 51.7249 115.488 51.7249 115.968C51.7249 116.651 51.4529 117.2 50.9089 117.616C50.3756 118.032 49.5436 118.24 48.4129 118.24ZM56.6514 118.24C56.0221 118.24 55.4141 118.16 54.8274 118C54.2408 117.84 53.7394 117.611 53.3234 117.312V113.28H56.5874V114.272H54.5554V116.736C55.0781 117.077 55.7768 117.248 56.6514 117.248C57.7394 117.248 58.5874 116.928 59.1954 116.288C59.8034 115.648 60.1074 114.741 60.1074 113.568C60.1074 112.384 59.8194 111.525 59.2434 110.992C58.6781 110.459 57.7394 110.192 56.4274 110.192C55.8514 110.192 55.2914 110.256 54.7474 110.384C54.2141 110.501 53.7608 110.693 53.3874 110.96V109.936C54.1981 109.445 55.2594 109.2 56.5714 109.2C58.1288 109.2 59.3128 109.573 60.1234 110.32C60.9341 111.056 61.3394 112.139 61.3394 113.568C61.3394 114.507 61.1528 115.328 60.7794 116.032C60.4061 116.736 59.8674 117.28 59.1634 117.664C58.4594 118.048 57.6221 118.24 56.6514 118.24ZM63.7328 112.56L62.9328 111.296C63.4661 110.613 64.0848 110.096 64.7888 109.744C65.4928 109.381 66.3301 109.2 67.3008 109.2C68.5381 109.2 69.4821 109.483 70.1328 110.048C70.7835 110.613 71.1088 111.408 71.1088 112.432V118H69.8768V112.544C69.8768 111.744 69.6581 111.152 69.2208 110.768C68.7941 110.384 68.1541 110.192 67.3008 110.192C66.6395 110.192 66.0635 110.293 65.5728 110.496C65.0821 110.688 64.6448 111.003 64.2608 111.44L64.9648 112.544V118H63.7328V112.56ZM76.6586 118.24C75.5599 118.24 74.6906 117.952 74.0506 117.376C73.4212 116.789 73.1066 116.011 73.1066 115.04V114.352C73.1066 114.011 73.1812 113.691 73.3306 113.392C73.4906 113.093 73.7146 112.741 74.0026 112.336C74.2159 112.048 74.3759 111.813 74.4826 111.632C74.5892 111.44 74.6426 111.253 74.6426 111.072C74.6426 110.827 74.5892 110.661 74.4826 110.576C74.3759 110.48 74.1839 110.432 73.9066 110.432H73.0266V109.44H74.4186C74.8666 109.44 75.2186 109.573 75.4746 109.84C75.7412 110.107 75.8746 110.464 75.8746 110.912C75.8746 111.2 75.8106 111.472 75.6826 111.728C75.5546 111.973 75.3572 112.283 75.0906 112.656C74.8346 112.997 74.6426 113.291 74.5146 113.536C74.3972 113.771 74.3386 114.021 74.3386 114.288V115.088C74.3386 115.781 74.5359 116.315 74.9306 116.688C75.3252 117.061 75.9012 117.248 76.6586 117.248C77.4266 117.248 78.0026 117.061 78.3866 116.688C78.7706 116.315 78.9626 115.776 78.9626 115.072V109.44H80.1946V114.848C80.1946 115.915 79.8852 116.747 79.2666 117.344C78.6479 117.941 77.7786 118.24 76.6586 118.24ZM76.9843 107.072C76.9843 106.933 76.963 106.837 76.9203 106.784C76.867 106.731 76.771 106.704 76.6323 106.704H75.9283V105.808H76.9683C77.2883 105.808 77.523 105.888 77.6723 106.048C77.811 106.197 77.8803 106.389 77.8803 106.624V107.216H81.1603V108.064H76.9843V107.072ZM85.4483 118.24C84.819 118.24 84.211 118.16 83.6243 118C83.0376 117.84 82.5363 117.611 82.1203 117.312V113.28H85.3843V114.272H83.3523V116.736C83.875 117.077 84.5736 117.248 85.4483 117.248C86.5363 117.248 87.3843 116.928 87.9923 116.288C88.6003 115.648 88.9043 114.741 88.9043 113.568C88.9043 112.384 88.6163 111.525 88.0403 110.992C87.475 110.459 86.5363 110.192 85.2243 110.192C84.6483 110.192 84.0883 110.256 83.5443 110.384C83.011 110.501 82.5576 110.693 82.1843 110.96V109.936C82.995 109.445 84.0563 109.2 85.3683 109.2C86.9256 109.2 88.1096 109.573 88.9203 110.32C89.731 111.056 90.1363 112.139 90.1363 113.568C90.1363 114.507 89.9496 115.328 89.5763 116.032C89.203 116.736 88.6643 117.28 87.9603 117.664C87.2563 118.048 86.419 118.24 85.4483 118.24ZM96.4497 118.24C95.1484 118.24 94.0817 117.739 93.2497 116.736V118H92.0497V109.44H93.2817V115.616C93.9857 116.704 94.9457 117.248 96.1617 117.248C96.9404 117.248 97.527 117.072 97.9217 116.72C98.3164 116.357 98.5137 115.829 98.5137 115.136V109.44H99.7457V115.184C99.7457 116.112 99.4577 116.853 98.8817 117.408C98.3057 117.963 97.495 118.24 96.4497 118.24ZM97.8752 122.256C97.2672 122.256 96.7979 122.123 96.4672 121.856C96.1365 121.589 95.9712 121.237 95.9712 120.8V120.24C95.9712 120.091 95.9499 119.989 95.9072 119.936C95.8645 119.893 95.7739 119.872 95.6352 119.872H95.0752V118.992H96.2912C96.5579 118.992 96.7445 119.051 96.8512 119.168C96.9472 119.296 96.9952 119.493 96.9952 119.76V120.688C96.9952 121.211 97.2779 121.472 97.8432 121.472C98.3979 121.472 98.6752 121.211 98.6752 120.688V118.992H99.6992V120.768C99.6992 121.216 99.5392 121.573 99.2192 121.84C98.8992 122.117 98.4512 122.256 97.8752 122.256ZM104.707 118.24C103.769 118.24 103.027 118.011 102.483 117.552C101.939 117.083 101.667 116.411 101.667 115.536C101.667 114.683 101.971 114.011 102.579 113.52C103.187 113.019 104.003 112.768 105.027 112.768C106.137 112.768 107.145 112.981 108.051 113.408V112.48C108.051 111.691 107.838 111.115 107.411 110.752C106.985 110.379 106.291 110.192 105.331 110.192C104.83 110.192 104.339 110.24 103.859 110.336C103.379 110.421 102.963 110.544 102.611 110.704V109.712C102.931 109.563 103.363 109.44 103.907 109.344C104.451 109.248 104.979 109.2 105.491 109.2C106.771 109.2 107.721 109.493 108.339 110.08C108.969 110.656 109.283 111.451 109.283 112.464V118H108.051V114.4C107.209 113.973 106.238 113.76 105.139 113.76C104.371 113.76 103.806 113.909 103.443 114.208C103.081 114.496 102.899 114.939 102.899 115.536C102.899 116.123 103.065 116.555 103.395 116.832C103.726 117.109 104.254 117.248 104.979 117.248C105.353 117.248 105.705 117.2 106.035 117.104V118.08C105.662 118.187 105.219 118.24 104.707 118.24ZM111.518 112.592C111.518 111.515 111.865 110.683 112.558 110.096C113.262 109.499 114.222 109.2 115.438 109.2C116.665 109.2 117.625 109.499 118.318 110.096C119.012 110.683 119.358 111.515 119.358 112.592V118H118.126V112.544C118.126 111.755 117.886 111.168 117.406 110.784C116.937 110.389 116.281 110.192 115.438 110.192C114.596 110.192 113.934 110.389 113.454 110.784C112.985 111.168 112.75 111.755 112.75 112.544V114.416C112.91 114.139 113.15 113.915 113.47 113.744C113.801 113.563 114.185 113.472 114.622 113.472H115.886V114.464H114.51C114.19 114.464 113.892 114.549 113.614 114.72C113.348 114.891 113.134 115.109 112.974 115.376C112.825 115.632 112.75 115.899 112.75 116.176V118H111.518V112.592ZM122.445 112.704C122.029 112.704 121.73 112.608 121.549 112.416C121.367 112.224 121.277 111.936 121.277 111.552V110.752H122.413V111.296C122.413 111.477 122.45 111.605 122.525 111.68C122.61 111.755 122.754 111.792 122.957 111.792H124.813V112.704H122.445ZM122.445 117.104C122.029 117.104 121.73 117.008 121.549 116.816C121.367 116.624 121.277 116.336 121.277 115.952V115.152H122.413V115.696C122.413 115.877 122.45 116.005 122.525 116.08C122.61 116.155 122.754 116.192 122.957 116.192H124.813V117.104H122.445ZM128.225 118C127.745 118 127.377 117.861 127.121 117.584C126.865 117.307 126.737 116.923 126.737 116.432V109.44H127.969V116.16C127.969 116.469 128.033 116.683 128.161 116.8C128.289 116.907 128.503 116.96 128.801 116.96H129.393V118H128.225ZM132.161 118C131.681 118 131.313 117.861 131.057 117.584C130.801 117.307 130.673 116.923 130.673 116.432V109.44H131.905V116.16C131.905 116.469 131.969 116.683 132.097 116.8C132.225 116.907 132.439 116.96 132.737 116.96H133.329V118H132.161ZM138.549 118.24C137.503 118.24 136.693 117.963 136.117 117.408C135.541 116.853 135.253 116.112 135.253 115.184V109.44H136.485V115.136C136.485 115.829 136.682 116.357 137.077 116.72C137.471 117.072 138.058 117.248 138.837 117.248C140.053 117.248 141.013 116.704 141.717 115.616V109.44H142.949V118H141.749V116.736C141.354 117.248 140.895 117.627 140.373 117.872C139.85 118.117 139.242 118.24 138.549 118.24ZM148.486 118.24C147.441 118.24 146.63 117.963 146.054 117.408C145.478 116.853 145.19 116.112 145.19 115.184V109.44H146.422V115.136C146.422 115.829 146.62 116.357 147.014 116.72C147.409 117.072 147.996 117.248 148.774 117.248C149.99 117.248 150.95 116.704 151.654 115.616V109.44H152.886V118H151.686V116.736C151.292 117.248 150.833 117.627 150.31 117.872C149.788 118.117 149.18 118.24 148.486 118.24ZM156.76 118C156.28 118 155.912 117.861 155.656 117.584C155.4 117.307 155.272 116.923 155.272 116.432V111.808C155.272 111.232 155.373 110.757 155.576 110.384C155.778 110.011 156.066 109.611 156.44 109.184C156.674 108.917 156.85 108.688 156.968 108.496C157.085 108.304 157.144 108.101 157.144 107.888C157.144 107.504 157.042 107.227 156.84 107.056C156.637 106.885 156.29 106.8 155.8 106.8C155.17 106.8 154.573 106.976 154.008 107.328V106.336C154.594 105.984 155.304 105.808 156.136 105.808C156.893 105.808 157.453 106 157.816 106.384C158.189 106.757 158.376 107.248 158.376 107.856C158.376 108.155 158.306 108.421 158.168 108.656C158.029 108.891 157.821 109.163 157.544 109.472C157.202 109.867 156.941 110.229 156.76 110.56C156.589 110.88 156.504 111.28 156.504 111.76V116.16C156.504 116.469 156.568 116.683 156.696 116.8C156.824 116.907 157.037 116.96 157.336 116.96H157.928V118H156.76ZM159.815 109.44H161.047V113.552L165.655 109.44H167.111L164.775 111.536C165.661 111.749 166.279 112.101 166.631 112.592C166.983 113.072 167.159 113.712 167.159 114.512V118H165.927V114.576C165.927 113.904 165.778 113.392 165.479 113.04C165.191 112.688 164.69 112.437 163.975 112.288L161.047 114.896V118H159.815V109.44ZM163.937 107.072C163.937 106.933 163.916 106.837 163.873 106.784C163.82 106.731 163.724 106.704 163.585 106.704H162.881V105.808H163.921C164.241 105.808 164.476 105.888 164.625 106.048C164.764 106.197 164.833 106.389 164.833 106.624V107.216H168.113V108.064H163.937V107.072ZM170.881 118C170.401 118 170.033 117.861 169.777 117.584C169.521 117.307 169.393 116.923 169.393 116.432V109.44H170.625V116.16C170.625 116.469 170.689 116.683 170.817 116.8C170.945 116.907 171.159 116.96 171.457 116.96H172.049V118H170.881ZM176.692 118.24C175.753 118.24 175.012 118.011 174.468 117.552C173.924 117.083 173.652 116.411 173.652 115.536C173.652 114.683 173.956 114.011 174.564 113.52C175.172 113.019 175.988 112.768 177.012 112.768C178.121 112.768 179.129 112.981 180.036 113.408V112.48C180.036 111.691 179.822 111.115 179.396 110.752C178.969 110.379 178.276 110.192 177.316 110.192C176.814 110.192 176.324 110.24 175.844 110.336C175.364 110.421 174.948 110.544 174.596 110.704V109.712C174.916 109.563 175.348 109.44 175.892 109.344C176.436 109.248 176.964 109.2 177.476 109.2C178.553 109.2 179.401 109.413 180.02 109.84L180.948 108.8H182.324L180.756 110.56C181.097 111.072 181.268 111.707 181.268 112.464V118H180.036V114.4C179.193 113.973 178.222 113.76 177.124 113.76C175.63 113.76 174.884 114.352 174.884 115.536C174.884 116.123 175.049 116.555 175.38 116.832C175.71 117.109 176.238 117.248 176.964 117.248C177.337 117.248 177.689 117.2 178.02 117.104V118.08C177.646 118.187 177.204 118.24 176.692 118.24ZM186.6 118.24C186.046 118.24 185.47 118.165 184.872 118.016C184.286 117.877 183.822 117.68 183.48 117.424V116.384C183.928 116.672 184.419 116.891 184.952 117.04C185.486 117.179 186.008 117.248 186.52 117.248C187.288 117.248 187.838 117.152 188.168 116.96C188.51 116.757 188.68 116.421 188.68 115.952C188.68 115.643 188.606 115.392 188.456 115.2C188.318 114.997 188.083 114.821 187.752 114.672C187.422 114.523 186.931 114.352 186.28 114.16C185.31 113.872 184.595 113.547 184.136 113.184C183.678 112.811 183.448 112.272 183.448 111.568C183.448 110.8 183.736 110.213 184.312 109.808C184.899 109.403 185.699 109.2 186.712 109.2C187.235 109.2 187.736 109.264 188.216 109.392C188.696 109.509 189.096 109.669 189.416 109.872V110.896C188.648 110.427 187.779 110.192 186.808 110.192C185.39 110.192 184.68 110.651 184.68 111.568C184.68 111.899 184.766 112.16 184.936 112.352C185.107 112.544 185.358 112.709 185.688 112.848C186.019 112.976 186.526 113.136 187.208 113.328C187.891 113.52 188.424 113.733 188.808 113.968C189.203 114.192 189.486 114.464 189.656 114.784C189.827 115.093 189.912 115.488 189.912 115.968C189.912 116.651 189.64 117.2 189.096 117.616C188.563 118.032 187.731 118.24 186.6 118.24ZM185.175 108.128C184.642 108.128 184.22 107.973 183.911 107.664C183.591 107.355 183.431 106.955 183.431 106.464C183.431 105.856 183.607 105.397 183.959 105.088C184.311 104.768 184.802 104.608 185.431 104.608H189.079V105.344H185.495C185.1 105.344 184.807 105.429 184.615 105.6C184.423 105.771 184.327 106.032 184.327 106.384C184.327 106.704 184.412 106.949 184.583 107.12C184.743 107.28 184.972 107.36 185.271 107.36C185.591 107.36 185.836 107.275 186.007 107.104C186.178 106.933 186.263 106.709 186.263 106.432H187.015C187.015 106.709 187.095 106.923 187.255 107.072C187.415 107.221 187.65 107.296 187.959 107.296H188.807V108.064H187.975C187.623 108.064 187.33 107.989 187.095 107.84C186.85 107.691 186.695 107.509 186.631 107.296C186.546 107.52 186.37 107.717 186.103 107.888C185.836 108.048 185.527 108.128 185.175 108.128ZM192.039 113.296H193.255L194.167 117.024C194.935 117.024 195.607 116.88 196.183 116.592C196.759 116.304 197.207 115.893 197.527 115.36C197.847 114.827 198.007 114.203 198.007 113.488C198.007 112.731 197.9 112.112 197.687 111.632C197.484 111.152 197.127 110.795 196.615 110.56C196.114 110.315 195.42 110.192 194.535 110.192C193.991 110.192 193.447 110.245 192.903 110.352C192.359 110.448 191.895 110.581 191.511 110.752V109.76C191.895 109.589 192.37 109.456 192.935 109.36C193.511 109.253 194.087 109.2 194.663 109.2C196.21 109.2 197.356 109.552 198.103 110.256C198.86 110.96 199.239 112.037 199.239 113.488C199.239 114.341 199.026 115.115 198.599 115.808C198.172 116.491 197.591 117.029 196.855 117.424C196.13 117.808 195.33 118 194.455 118H193.191L192.039 113.296ZM203.879 118.24C202.94 118.24 202.199 118.011 201.655 117.552C201.111 117.083 200.839 116.411 200.839 115.536C200.839 114.683 201.143 114.011 201.751 113.52C202.359 113.019 203.175 112.768 204.199 112.768C205.308 112.768 206.316 112.981 207.223 113.408V112.48C207.223 111.691 207.01 111.115 206.583 110.752C206.156 110.379 205.463 110.192 204.503 110.192C204.002 110.192 203.511 110.24 203.031 110.336C202.551 110.421 202.135 110.544 201.783 110.704V109.712C202.103 109.563 202.535 109.44 203.079 109.344C203.623 109.248 204.151 109.2 204.663 109.2C205.74 109.2 206.588 109.413 207.207 109.84L208.135 108.8H209.511L207.943 110.56C208.284 111.072 208.455 111.707 208.455 112.464V118H207.223V114.4C206.38 113.973 205.41 113.76 204.311 113.76C202.818 113.76 202.071 114.352 202.071 115.536C202.071 116.123 202.236 116.555 202.567 116.832C202.898 117.109 203.426 117.248 204.151 117.248C204.524 117.248 204.876 117.2 205.207 117.104V118.08C204.834 118.187 204.391 118.24 203.879 118.24ZM202.028 107.152H208.7V108.064H202.028V107.152ZM206.3 104.872C206.3 104.733 206.279 104.643 206.236 104.6C206.183 104.547 206.087 104.52 205.948 104.52H205.276V103.672H206.284C206.871 103.672 207.164 103.933 207.164 104.456V105.032H209.82V105.816H206.3V104.872ZM214.252 118.24C213.207 118.24 212.396 117.963 211.82 117.408C211.244 116.853 210.956 116.112 210.956 115.184V109.44H212.188V115.136C212.188 115.829 212.385 116.357 212.78 116.72C213.175 117.072 213.761 117.248 214.54 117.248C215.756 117.248 216.716 116.704 217.42 115.616V109.44H218.652V118H217.452V116.736C217.057 117.248 216.599 117.627 216.076 117.872C215.553 118.117 214.945 118.24 214.252 118.24ZM222.381 118C221.901 118 221.533 117.861 221.277 117.584C221.021 117.307 220.893 116.923 220.893 116.432V109.44H222.125V116.16C222.125 116.469 222.189 116.683 222.317 116.8C222.445 116.907 222.659 116.96 222.957 116.96H223.549V118H222.381ZM224.992 109.44H226.224L227.968 116.224L230 109.44H230.992L233.024 116.224L234.768 109.44H236L233.632 118H232.592L230.496 111.008L228.4 118H227.36L224.992 109.44ZM227.404 107.232H230.732V105.456H231.724V107.232H233.084V105.456H234.06V108.064H227.404V107.232ZM232.892 102.848H233.996V104.912H232.892V102.848ZM240.761 118.24C240.131 118.24 239.523 118.16 238.937 118C238.35 117.84 237.849 117.611 237.433 117.312V113.28H240.697V114.272H238.665V116.736C239.187 117.077 239.886 117.248 240.761 117.248C241.849 117.248 242.697 116.928 243.305 116.288C243.913 115.648 244.217 114.741 244.217 113.568C244.217 112.384 243.929 111.525 243.353 110.992C242.787 110.459 241.849 110.192 240.537 110.192C239.961 110.192 239.401 110.256 238.857 110.384C238.323 110.501 237.87 110.693 237.497 110.96V109.936C238.307 109.445 239.369 109.2 240.681 109.2C242.238 109.2 243.422 109.573 244.233 110.32C245.043 111.056 245.449 112.139 245.449 113.568C245.449 114.507 245.262 115.328 244.889 116.032C244.515 116.736 243.977 117.28 243.273 117.664C242.569 118.048 241.731 118.24 240.761 118.24ZM251.074 118.24C250.274 118.24 249.57 118.075 248.962 117.744C248.354 117.403 247.88 116.907 247.538 116.256C247.208 115.605 247.042 114.811 247.042 113.872C247.042 112.4 247.442 111.253 248.242 110.432C249.053 109.611 250.173 109.2 251.602 109.2C253.064 109.2 254.12 109.547 254.77 110.24C255.432 110.923 255.762 111.787 255.762 112.832V118H254.53V112.816C254.53 111.067 253.554 110.192 251.602 110.192C250.557 110.192 249.741 110.507 249.154 111.136C248.568 111.755 248.274 112.667 248.274 113.872C248.274 114.971 248.541 115.808 249.074 116.384C249.608 116.96 250.333 117.248 251.25 117.248C251.645 117.248 252.024 117.2 252.386 117.104V118.08C252.034 118.187 251.597 118.24 251.074 118.24ZM253.891 122.256C253.283 122.256 252.813 122.123 252.483 121.856C252.152 121.589 251.987 121.237 251.987 120.8V120.24C251.987 120.091 251.965 119.989 251.923 119.936C251.88 119.893 251.789 119.872 251.651 119.872H251.091V118.992H252.307C252.573 118.992 252.76 119.051 252.867 119.168C252.963 119.296 253.011 119.493 253.011 119.76V120.688C253.011 121.211 253.293 121.472 253.859 121.472C254.413 121.472 254.691 121.211 254.691 120.688V118.992H255.715V120.768C255.715 121.216 255.555 121.573 255.235 121.84C254.915 122.117 254.467 122.256 253.891 122.256ZM260.723 118.24C259.784 118.24 259.043 118.011 258.499 117.552C257.955 117.083 257.683 116.411 257.683 115.536C257.683 114.683 257.987 114.011 258.595 113.52C259.203 113.019 260.019 112.768 261.043 112.768C262.152 112.768 263.16 112.981 264.067 113.408V112.48C264.067 111.691 263.853 111.115 263.427 110.752C263 110.379 262.307 110.192 261.347 110.192C260.845 110.192 260.355 110.24 259.875 110.336C259.395 110.421 258.979 110.544 258.627 110.704V109.712C258.947 109.563 259.379 109.44 259.923 109.344C260.467 109.248 260.995 109.2 261.507 109.2C262.584 109.2 263.432 109.413 264.051 109.84L264.979 108.8H266.355L264.787 110.56C265.128 111.072 265.299 111.707 265.299 112.464V118H264.067V114.4C263.224 113.973 262.253 113.76 261.155 113.76C259.661 113.76 258.915 114.352 258.915 115.536C258.915 116.123 259.08 116.555 259.411 116.832C259.741 117.109 260.269 117.248 260.995 117.248C261.368 117.248 261.72 117.2 262.051 117.104V118.08C261.677 118.187 261.235 118.24 260.723 118.24ZM270.632 118.24C270.077 118.24 269.501 118.165 268.904 118.016C268.317 117.877 267.853 117.68 267.512 117.424V116.384C267.96 116.672 268.45 116.891 268.984 117.04C269.517 117.179 270.04 117.248 270.552 117.248C271.32 117.248 271.869 117.152 272.2 116.96C272.541 116.757 272.712 116.421 272.712 115.952C272.712 115.643 272.637 115.392 272.488 115.2C272.349 114.997 272.114 114.821 271.784 114.672C271.453 114.523 270.962 114.352 270.312 114.16C269.341 113.872 268.626 113.547 268.168 113.184C267.709 112.811 267.48 112.272 267.48 111.568C267.48 110.8 267.768 110.213 268.344 109.808C268.93 109.403 269.73 109.2 270.744 109.2C271.266 109.2 271.768 109.264 272.248 109.392C272.728 109.509 273.128 109.669 273.448 109.872V110.896C272.68 110.427 271.81 110.192 270.84 110.192C269.421 110.192 268.712 110.651 268.712 111.568C268.712 111.899 268.797 112.16 268.968 112.352C269.138 112.544 269.389 112.709 269.72 112.848C270.05 112.976 270.557 113.136 271.24 113.328C271.922 113.52 272.456 113.733 272.84 113.968C273.234 114.192 273.517 114.464 273.688 114.784C273.858 115.093 273.944 115.488 273.944 115.968C273.944 116.651 273.672 117.2 273.128 117.616C272.594 118.032 271.762 118.24 270.632 118.24ZM272.486 120.512C272.486 120.309 272.449 120.176 272.374 120.112C272.3 120.059 272.15 120.032 271.926 120.032H271.43V118.992H272.566C272.982 118.992 273.265 119.083 273.414 119.264C273.553 119.445 273.622 119.765 273.622 120.224V122.112H272.486V120.512ZM279.83 118.24C279.03 118.24 278.326 118.096 277.718 117.808C277.121 117.52 276.662 117.115 276.342 116.592C276.022 116.059 275.862 115.451 275.862 114.768V109.44H277.094V114.784C277.094 115.541 277.329 116.144 277.798 116.592C278.278 117.029 278.956 117.248 279.83 117.248C280.705 117.248 281.377 117.029 281.846 116.592C282.326 116.144 282.566 115.541 282.566 114.784V106.576H283.798V114.768C283.798 115.451 283.638 116.059 283.318 116.592C282.998 117.115 282.534 117.52 281.926 117.808C281.329 118.096 280.63 118.24 279.83 118.24ZM286.034 111.056C286.034 110.533 286.167 110.133 286.434 109.856C286.701 109.579 287.09 109.44 287.602 109.44H288.69V110.48H288.114C287.805 110.48 287.586 110.544 287.458 110.672C287.33 110.8 287.266 111.013 287.266 111.312V116.096L289.714 112H290.306L292.754 116.096V109.44H293.986V118H292.85L290.018 113.248L287.17 118H286.034V111.056ZM298.942 118.24C298.003 118.24 297.262 118.011 296.718 117.552C296.174 117.083 295.902 116.411 295.902 115.536C295.902 114.683 296.206 114.011 296.814 113.52C297.422 113.019 298.238 112.768 299.262 112.768C300.371 112.768 301.379 112.981 302.286 113.408V112.48C302.286 111.691 302.072 111.115 301.646 110.752C301.219 110.379 300.526 110.192 299.566 110.192C299.064 110.192 298.574 110.24 298.094 110.336C297.614 110.421 297.198 110.544 296.846 110.704V109.712C297.166 109.563 297.598 109.44 298.142 109.344C298.686 109.248 299.214 109.2 299.726 109.2C301.006 109.2 301.955 109.493 302.574 110.08C303.203 110.656 303.518 111.451 303.518 112.464V118H302.286V114.4C301.443 113.973 300.472 113.76 299.374 113.76C298.606 113.76 298.04 113.909 297.678 114.208C297.315 114.496 297.134 114.939 297.134 115.536C297.134 116.123 297.299 116.555 297.63 116.832C297.96 117.109 298.488 117.248 299.214 117.248C299.587 117.248 299.939 117.2 300.27 117.104V118.08C299.896 118.187 299.454 118.24 298.942 118.24Z" fill="#7294C9"/>
<path d="M154.532 50.1042H148.438L134.896 56.875V50.1042H125.417V9.47916H179.584V24.375M136.25 20.3125H144.375M136.25 28.4375H152.5M163.334 33.8542L179.584 50.1042M179.584 33.8542L163.334 50.1042" stroke="#7294C9" stroke-width="3" stroke-linecap="round" stroke-linejoin="round"/>
</svg>
