<svg width="45" height="42" viewBox="0 0 45 42" fill="none" xmlns="http://www.w3.org/2000/svg">
<rect width="45" height="42" rx="21" fill="#95AFD7"/>
<path d="M17.9501 24.75C17.853 24.75 17.7559 24.7637 17.6633 24.7926C17.1368 24.957 16.583 25.0625 16.0001 25.0625C15.4171 25.0625 14.8634 24.957 14.3365 24.7926C14.2438 24.7637 14.1472 24.75 14.0501 24.75C11.5289 24.75 9.48666 26.7219 9.50007 29.1492C9.50575 30.175 10.3828 31 11.4501 31H20.5501C21.6173 31 22.4944 30.175 22.5001 29.1492C22.5135 26.7219 20.4713 24.75 17.9501 24.75ZM16.0001 23.5C18.154 23.5 19.9001 21.8211 19.9001 19.75C19.9001 17.6789 18.154 16 16.0001 16C13.8461 16 12.1001 17.6789 12.1001 19.75C12.1001 21.8211 13.8461 23.5 16.0001 23.5ZM33.5501 11H17.9501C16.8747 11 16.0001 11.8691 16.0001 12.9371V14.75C16.9515 14.75 17.8323 15.0148 18.6001 15.4453V13.5H32.9001V24.75H30.3001V22.25H25.1001V24.75H22.0028C22.7788 25.402 23.3483 26.2629 23.6152 27.25H33.5501C34.6254 27.25 35.5001 26.3809 35.5001 25.3129V12.9371C35.5001 11.8691 34.6254 11 33.5501 11Z" fill="white"/>
</svg>
