<?xml version="1.0" encoding="UTF-8"?>
<svg id="Layer_2" data-name="Layer 2" xmlns="http://www.w3.org/2000/svg" xmlns:xlink="http://www.w3.org/1999/xlink" viewBox="0 0 317.19 315.69">
  <defs>
    <style>
      .cls-1 {
        fill: #b3d7fb;
      }

      .cls-1, .cls-2, .cls-3, .cls-4, .cls-5 {
        stroke-width: 0px;
      }

      .cls-2 {
        fill: url(#linear-gradient);
      }

      .cls-3 {
        fill: #f7f7f7;
      }

      .cls-6 {
        fill: none;
        stroke: #fff;
        stroke-miterlimit: 10;
        stroke-width: 2px;
      }

      .cls-4 {
        fill: #fff;
      }

      .cls-5 {
        fill: #94b8ed;
      }
    </style>
    <linearGradient id="linear-gradient" x1="72.19" y1="162.12" x2="98.13" y2="8.58" gradientUnits="userSpaceOnUse">
      <stop offset="0" stop-color="#9bbff8"/>
      <stop offset=".25" stop-color="#a9cdfa"/>
      <stop offset=".7" stop-color="#bfe2fd"/>
      <stop offset="1" stop-color="#c7eaff"/>
    </linearGradient>
  </defs>
  <g id="Layer_2-2" data-name="Layer 2">
    <g>
      <g>
        <path class="cls-3" d="m171.73,27.16v77.18c33.45,0,60.57,27.12,60.57,60.57h77.18c4.42,0,7.94-3.72,7.7-8.14-4.07-73.97-63.33-133.23-137.3-137.3-4.42-.24-8.14,3.27-8.14,7.7Z"/>
        <path class="cls-2" d="m7.17,158.89h86.82c0-35.84,29.05-64.89,64.89-64.89V7.17c0-4.1-3.44-7.36-7.53-7.17C69.51,3.82,3.82,69.51,0,151.36c-.19,4.1,3.06,7.53,7.17,7.53Z"/>
        <path class="cls-1" d="m176.72,298.68v-68.31c30.46,0,55.16-24.69,55.16-55.16h68.31c4.38,0,7.79,3.58,7.52,7.95-3.95,66.14-56.9,119.09-123.04,123.04-4.37.26-7.95-3.14-7.95-7.52Z"/>
        <path class="cls-5" d="m28.63,170.22h77.57c0,33.34,27.03,60.37,60.37,60.37v77.57c0,4.31-3.63,7.74-7.93,7.51-74.13-3.98-133.54-63.39-137.52-137.52-.23-4.31,3.19-7.93,7.51-7.93Z"/>
      </g>
      <g>
        <circle class="cls-4" cx="79.89" cy="85.89" r="9"/>
        <circle class="cls-4" cx="244.89" cy="242.89" r="9"/>
        <circle class="cls-4" cx="241.89" cy="91.89" r="9"/>
        <circle class="cls-4" cx="84.89" cy="242.89" r="9"/>
        <line class="cls-6" x1="79.89" y1="85.89" x2="158.89" y2="44.89"/>
        <line class="cls-6" x1="171.89" y1="45.89" x2="241.89" y2="91.89"/>
        <line class="cls-6" x1="244.89" y1="242.89" x2="283.89" y2="175.89"/>
        <line class="cls-6" x1="282.89" y1="163.89" x2="241.89" y2="91.89"/>
        <line class="cls-6" x1="244.89" y1="242.89" x2="176.89" y2="278.89"/>
        <line class="cls-6" x1="166.89" y1="279.89" x2="84.89" y2="242.89"/>
        <line class="cls-6" x1="47.89" y1="169.89" x2="84.89" y2="242.89"/>
        <line class="cls-6" x1="45.89" y1="157.89" x2="79.89" y2="85.89"/>
      </g>
    </g>
  </g>
</svg>