<svg width="29" height="29" viewBox="0 0 29 29" fill="none" xmlns="http://www.w3.org/2000/svg">
<rect opacity="0.5" x="1" y="1" width="27" height="27" rx="8" fill="#4F79BC" stroke="#4F79BC" stroke-width="2"/>
<path d="M10.4751 18.375C10.3892 18.375 10.3033 18.3873 10.2213 18.4133C9.75559 18.5613 9.26576 18.6562 8.75006 18.6562C8.23436 18.6562 7.74453 18.5613 7.27842 18.4133C7.19648 18.3873 7.11095 18.375 7.02506 18.375C4.79478 18.375 2.9882 20.1497 3.00006 22.3343C3.00509 23.2575 3.78098 24 4.72506 24H12.7751C13.7191 24 14.495 23.2575 14.5001 22.3343C14.5119 20.1497 12.7053 18.375 10.4751 18.375ZM8.75006 17.25C10.6555 17.25 12.2001 15.739 12.2001 13.875C12.2001 12.011 10.6555 10.5 8.75006 10.5C6.84465 10.5 5.30006 12.011 5.30006 13.875C5.30006 15.739 6.84465 17.25 8.75006 17.25ZM24.2751 6H10.4751C9.52379 6 8.75006 6.78223 8.75006 7.7434V9.375C9.59171 9.375 10.3708 9.61336 11.0501 10.0008V8.25H23.7001V18.375H21.4001V16.125H16.8001V18.375H14.0602C14.7466 18.9618 15.2504 19.7366 15.4865 20.625H24.2751C25.2263 20.625 26.0001 19.8428 26.0001 18.8816V7.7434C26.0001 6.78223 25.2263 6 24.2751 6Z" fill="white"/>
</svg>
