<svg width="28" height="28" viewBox="0 0 28 28" fill="none" xmlns="http://www.w3.org/2000/svg">
<path d="M9.5 13C10.6935 13 11.8381 12.5259 12.682 11.682C13.5259 10.8381 14 9.69347 14 8.5C14 7.30653 13.5259 6.16193 12.682 5.31802C11.8381 4.47411 10.6935 4 9.5 4C8.30653 4 7.16193 4.47411 6.31802 5.31802C5.47411 6.16193 5 7.30653 5 8.5C5 9.69347 5.47411 10.8381 6.31802 11.682C7.16193 12.5259 8.30653 13 9.5 13ZM23.5 9.5C23.5 9.95963 23.4095 10.4148 23.2336 10.8394C23.0577 11.264 22.7999 11.6499 22.4749 11.9749C22.1499 12.2999 21.764 12.5577 21.3394 12.7336C20.9148 12.9095 20.4596 13 20 13C19.5404 13 19.0852 12.9095 18.6606 12.7336C18.236 12.5577 17.8501 12.2999 17.5251 11.9749C17.2001 11.6499 16.9423 11.264 16.7664 10.8394C16.5905 10.4148 16.5 9.95963 16.5 9.5C16.5 8.57174 16.8687 7.6815 17.5251 7.02513C18.1815 6.36875 19.0717 6 20 6C20.9283 6 21.8185 6.36875 22.4749 7.02513C23.1313 7.6815 23.5 8.57174 23.5 9.5ZM2 17.25C2 16.6533 2.23705 16.081 2.65901 15.659C3.08097 15.2371 3.65326 15 4.25 15H14.75C14.948 15 15.14 15.026 15.323 15.074C14.5879 15.7735 14.0029 16.6153 13.6035 17.5481C13.2042 18.4809 12.9988 19.4853 13 20.5C13 21.165 13.086 21.809 13.249 22.422C12.274 22.777 11.046 23 9.5 23C2 23 2 17.75 2 17.75V17.25ZM27 20.5C27 22.2239 26.3152 23.8772 25.0962 25.0962C23.8772 26.3152 22.2239 27 20.5 27C18.7761 27 17.1228 26.3152 15.9038 25.0962C14.6848 23.8772 14 22.2239 14 20.5C14 18.7761 14.6848 17.1228 15.9038 15.9038C17.1228 14.6848 18.7761 14 20.5 14C22.2239 14 23.8772 14.6848 25.0962 15.9038C26.3152 17.1228 27 18.7761 27 20.5ZM21.214 16.54C21.17 16.3845 21.0765 16.2476 20.9476 16.1501C20.8188 16.0527 20.6616 15.9999 20.5 15.9999C20.3384 15.9999 20.1812 16.0527 20.0524 16.1501C19.9235 16.2476 19.83 16.3845 19.786 16.54L19.07 18.838H16.752C16.025 18.838 15.722 19.808 16.311 20.254L18.186 21.674L17.47 23.972C17.245 24.693 18.037 25.292 18.625 24.847L20.5 23.427L22.375 24.847C22.963 25.293 23.755 24.693 23.53 23.972L22.814 21.674L24.689 20.254C25.277 19.809 24.975 18.838 24.248 18.838H21.93L21.214 16.54Z" fill="#4F79BC"/>
</svg>
